<?xml version="1.0" encoding="UTF-8"?><svg id="Layer_1" xmlns="http://www.w3.org/2000/svg" viewBox="0 0 724.14 584.82"><defs><style>.cls-1{fill:#008ac7;}.cls-2{fill:#ef3c46;}.cls-3{fill:#231f20;}</style></defs><g><path class="cls-1" d="M575.22,283.98c-18.46-34.59-61.5-47.66-96.09-29.2-21.8,11.64-35.01,32.98-37.25,55.84-5.77,47.05-33.53,90.66-78.51,114.67-73.37,39.17-164.67,11.41-203.84-61.96-39.17-73.37-11.4-164.65,61.97-203.81,44.93-23.98,96.61-22.79,138.85-1.42,.77,.38,1.59,.72,2.32,1.11,.29,.16,.58,.3,.85,.42h0c19.61,9.37,43.27,9.67,63.93-1.36,34.51-18.42,47.55-61.37,29.13-95.88-7.23-13.54-18.21-23.73-30.96-30.06l.04-.13c-82.34-42.06-183.14-44.58-270.9,2.26C12.29,110.51-41.53,287.62,34.5,430.07c76.02,142.43,253.13,196.3,395.6,120.25,85.68-45.72,139.14-128.07,151.7-217.43,3.6-16.01,1.75-33.31-6.58-48.91Z"/><path class="cls-2" d="M566.54,24.67c-33.32,17.79-53.33,50.73-56.26,85.75-3.86,36.22-24.9,69.87-59.39,88.3-31.83,16.98-68.12,17.25-98.8,3.89-31.72-20.87-73.55-24.21-109.4-5.08-52.19,27.86-71.93,92.76-44.07,144.97,27.85,52.19,92.77,71.9,144.96,44.05,33.61-17.94,53.68-51.34,56.28-86.78,4.54-35.24,25.4-67.84,59.13-85.85,34.51-18.42,74.27-17.19,106.5-.26l.32-.38c30.61,16.56,68.61,18.02,101.61,.4,52.19-27.85,71.94-92.75,44.08-144.94-27.87-52.21-92.78-71.92-144.97-44.07Z"/></g><g><path class="cls-3" d="M290.64,269.93c-10.03,.67-17.61,9.35-16.93,19.37,.67,10.03,9.35,17.61,19.37,16.93,10.03-.67,17.61-9.35,16.93-19.37-.67-10.03-9.35-17.61-19.37-16.93Z"/><path class="cls-3" d="M314.58,299.59c-1.67,3.02-4.5,5.25-8,6.64l6.02,4.62c10.17,7.81,23.61,12.18,36.26,11.79,11.22-.34,20.72-4.4,26.2-11.18l4.84-5.99c4.39-5.44-3.87-13.69-12.47-12.45l-6.89,.99c-14.12,2.04-29.22,1.77-44.42-.73,.03,2.18-.45,4.32-1.54,6.3Z"/><path class="cls-3" d="M289.34,262.42c3.45-.07,6.8,1.27,9.75,3.6l.99-7.52c1.67-12.71-1.26-26.54-7.92-37.3-5.91-9.54-14.17-15.74-22.78-17.1l-7.61-1.2c-6.91-1.09-9.92,10.2-4.55,17.02l4.31,5.47c8.83,11.21,16.14,24.42,21.58,38.83,1.87-1.12,3.96-1.77,6.22-1.81Z"/><path class="cls-3" d="M270.39,274.54c1.67-3.02,4.5-5.25,8-6.64l-6.02-4.62c-10.17-7.81-23.61-12.18-36.26-11.79-11.22,.34-20.72,4.4-26.2,11.18l-4.84,5.99c-4.39,5.44,3.87,13.69,12.47,12.45l6.89-.99c14.12-2.04,29.22-1.77,44.42,.73-.03-2.18,.45-4.32,1.54-6.3Z"/><path class="cls-3" d="M270.04,301.67c-1.78-2.95-2.3-6.52-1.76-10.25l-7.01,2.9c-11.85,4.91-22.35,14.36-28.34,25.51-5.31,9.89-6.55,20.14-3.42,28.28l2.77,7.18c2.51,6.52,13.79,3.49,17.02-4.57l2.58-6.47c5.3-13.25,13.08-26.19,22.84-38.1-1.9-1.06-3.52-2.55-4.68-4.48Z"/><path class="cls-3" d="M293.34,313.26c-3.45,.07-6.8-1.27-9.75-3.6l-.99,7.52c-1.67,12.71,1.26,26.54,7.92,37.3,5.91,9.54,14.17,15.74,22.78,17.1l7.61,1.2c6.91,1.09,9.92-10.2,4.55-17.02l-4.31-5.47c-8.83-11.21-16.14-24.42-21.58-38.83-1.87,1.12-3.96,1.77-6.22,1.81Z"/><path class="cls-3" d="M313.05,272.35c1.78,2.95,2.3,6.52,1.76,10.25l7.01-2.9c11.85-4.91,22.35-14.36,28.34-25.51,5.31-9.89,6.55-20.14,3.42-28.28l-2.77-7.18c-2.51-6.52-13.79-3.49-17.02,4.57l-2.58,6.47c-5.3,13.25-13.08,26.19-22.84,38.1,1.9,1.06,3.52,2.55,4.68,4.48Z"/></g></svg>